<svg width="162" height="60" viewBox="0 0 162 60" fill="none" xmlns="http://www.w3.org/2000/svg">
<path d="M152.929 44.9403H150.525C150.646 46.8354 152.193 48.0978 154.418 48.0978C156.644 48.0978 158.266 46.775 158.266 44.4889V37.1531H155.83V41.2423C155.41 41.7225 154.945 41.9641 154.493 41.9641C153.697 41.9641 153.17 41.4666 153.17 40.4313V37.1531H150.72V40.8224C150.72 42.8958 151.983 44.1754 153.832 44.1754C154.614 44.1754 155.247 43.9195 155.83 43.468V44.5349C155.83 45.527 155.229 46.0388 154.418 46.0388C153.607 46.0388 153.035 45.5873 152.929 44.9403ZM155.664 36.0719L157.167 33.6679H154.597L153.395 36.0719H155.664ZM131.376 37.1531H128.94V44.4428H131.376V37.1531ZM128.716 34.6427C128.716 35.4249 129.349 36.0115 130.145 36.0115C130.942 36.0115 131.574 35.4249 131.574 34.6427C131.574 33.8605 130.927 33.2595 130.145 33.2595C129.363 33.2595 128.716 33.8462 128.716 34.6427ZM124.702 41.5586C124.236 42.0848 123.724 42.2487 123.198 42.2487C122.206 42.2487 121.469 41.4666 121.469 40.67C121.469 39.6175 122.206 38.9561 123.198 38.9561C123.724 38.9561 124.236 39.1057 124.702 39.6319V41.5557V41.5586ZM124.702 43.6636V44.5349C124.702 45.527 124.055 46.0388 123.229 46.0388C122.326 46.0388 121.817 45.619 121.697 44.9403H119.293C119.413 46.8354 121.021 48.0978 123.232 48.0978C125.444 48.0978 127.14 46.775 127.14 44.4889V37.1531H124.705V37.5126C124.164 37.1675 123.517 36.9576 122.706 36.9576C120.736 36.9576 119.083 38.4472 119.083 40.67C119.083 42.6398 120.736 44.1869 122.706 44.1869C123.517 44.1869 124.164 43.9914 124.705 43.6607M112.431 40.8052C112.431 39.7987 113.121 39.0022 114.16 39.0022C115.198 39.0022 115.873 39.7987 115.873 40.8052C115.873 41.8116 115.183 42.6082 114.16 42.6082C113.136 42.6082 112.431 41.8404 112.431 40.8052ZM110.145 40.7908C110.145 43.0165 111.845 44.6384 114.16 44.6384C116.474 44.6384 118.157 43.0137 118.157 40.7908C118.157 38.5679 116.457 36.9576 114.16 36.9576C111.862 36.9576 110.145 38.5967 110.145 40.7908ZM37.6564 42.6111C36.6183 42.6111 35.9281 41.8433 35.9281 40.808C35.9281 39.7728 36.6183 39.005 37.6564 39.005C38.6945 39.005 39.3702 39.8016 39.3702 40.808C39.3702 41.8145 38.6801 42.6111 37.6564 42.6111ZM37.6564 44.6413C39.9569 44.6413 41.6564 43.0165 41.6564 40.7937C41.6564 38.5708 39.9569 36.9605 37.6564 36.9605C35.3559 36.9605 33.642 38.5996 33.642 40.7937C33.642 42.9878 35.3415 44.6413 37.6564 44.6413ZM34.3005 52.509H31.7297L34.8871 59.8016H37.202L40.3595 52.509H37.7886L36.046 56.7189L34.3034 52.509H34.3005ZM17.9727 52.509H16.5435V54.5996H17.9727V56.7333C17.9727 58.7031 19.1747 59.9942 21.1589 59.9942C21.5787 59.9942 22.3609 59.9482 23.1143 59.6348L22.844 57.4551C22.4069 57.619 22.0158 57.757 21.55 57.757C20.8426 57.757 20.4083 57.4119 20.4083 56.6585V54.5996H22.89V52.509H20.4083V50.0273H17.9727V52.509ZM14.3436 37.1531V41.2423C13.9238 41.7225 13.4579 41.9641 13.0065 41.9641C12.2099 41.9641 11.6837 41.4666 11.6837 40.4313V37.1531H9.23365V40.8224C9.23365 42.8958 10.496 44.1754 12.3451 44.1754C13.1272 44.1754 13.7599 43.9195 14.3436 43.468V44.5349C14.3436 45.527 13.7426 46.0388 12.9317 46.0388C12.1208 46.0388 11.5485 45.5873 11.4421 44.9403H9.0381C9.15888 46.8354 10.706 48.0978 12.9317 48.0978C15.1574 48.0978 16.7793 46.775 16.7793 44.4889V37.1531H14.3436ZM11.0079 57.3055L8.84256 57.2912C9.00647 59.2293 10.5564 59.9971 12.4342 59.9971C14.312 59.9971 15.8476 59.2466 15.8476 57.5615C15.8476 56.2674 14.9303 55.606 13.5787 55.3501L12.2272 55.1258C11.6405 55.0194 11.4594 54.7951 11.4594 54.5392C11.4594 54.2689 11.7441 54.0417 12.3767 54.0417C13.0525 54.0417 13.5787 54.2832 13.6247 54.8239H15.7757C15.6693 52.9001 14.1078 52.3134 12.3796 52.3134C10.4414 52.3134 9.133 53.2164 9.133 54.7491C9.133 56.0259 10.0187 56.7333 11.2667 56.9432L12.739 57.1991C13.2193 57.2739 13.5068 57.4551 13.5068 57.711C13.5068 58.0273 13.1014 58.2085 12.4543 58.2085C11.6866 58.2085 11.1172 57.9382 11.0108 57.3055M2.61682 44.4457V39.8591C3.03666 39.3932 3.50252 39.1689 3.93961 39.1689C4.75054 39.1689 5.27678 39.6348 5.27678 40.6729V44.4457H7.71244V40.2818C7.71244 38.2085 6.45004 36.9605 4.61538 36.9605C3.83321 36.9605 3.20345 37.202 2.61682 37.6362V33.7743H0.163911V44.4486H2.61395L2.61682 44.4457ZM4 49.0237L2.79799 51.4306H5.06686L6.57081 49.0237H4ZM2.51042 52.5119H0.0718907V56.647C0.0718907 58.7203 1.33429 60 3.18332 60C3.96549 60 4.59526 59.7441 5.18188 59.2926V59.8045H7.61754V52.5119H5.18188V57.0812C4.76204 57.5471 4.29619 57.803 3.84472 57.803C3.04817 57.803 2.50755 57.3055 2.50755 56.2703V52.5119H2.51042ZM6.5248 17.9669L8.26743 15.5629H6.13372L5.36592 16.555L4.56937 15.5629H2.43566L4.17829 17.9669H6.5248ZM2.57081 23.9799C2.57081 22.2804 3.72969 21.0496 5.39756 21.0496C6.7491 21.0496 7.65205 21.8318 7.92236 23.1086H10.5392C10.2085 20.463 8.19267 18.6743 5.41193 18.6743C2.32926 18.6743 0 20.9001 0 23.9799C0 27.0597 2.32926 29.2854 5.41193 29.2854C8.19267 29.2854 10.2085 27.4968 10.5392 24.8512H7.92236C7.65205 26.128 6.7491 26.9101 5.39756 26.9101C3.72969 26.9101 2.57081 25.6765 2.57081 23.9799ZM16.9518 24.6269H13.9295C14.1251 23.8907 14.6197 23.4076 15.4795 23.4076C16.3393 23.4076 16.8311 23.7699 16.9518 24.6269ZM19.1776 26.0244C19.2236 25.7398 19.2236 25.4838 19.2236 25.1991C19.2236 22.9878 17.5989 21.6046 15.4191 21.6046C13.2394 21.6046 11.6147 23.2293 11.6147 25.4378C11.6147 27.6463 13.2078 29.2854 15.5974 29.2854C17.3113 29.2854 18.6657 28.3997 19.0999 26.9705H16.6355C16.4112 27.2408 16.0949 27.3616 15.5543 27.3616C14.5622 27.3616 14.0647 26.775 13.9008 26.0244H19.1776ZM22.3063 39.051C22.8325 39.051 23.3444 39.1862 23.8102 39.6981V41.9526C23.3444 42.4644 22.8325 42.5996 22.3063 42.5996C21.3142 42.5996 20.578 41.8318 20.578 40.8109C20.578 39.7901 21.3142 39.051 22.3063 39.051ZM21.8088 36.9921C19.839 36.9921 18.1855 38.6456 18.1855 40.8109C18.1855 42.9763 19.839 44.6441 21.8088 44.6441C22.6197 44.6441 23.2667 44.4342 23.8073 44.0891V44.4515H26.243V33.7771H23.8073V37.5643C23.2667 37.2049 22.6197 36.9921 21.8088 36.9921ZM22.6743 23.8303C22.6743 23.56 22.959 23.3329 23.5917 23.3329C24.2674 23.3329 24.7937 23.5744 24.8397 24.115H26.9907C26.8843 22.1912 25.3228 21.6046 23.5945 21.6046C21.6564 21.6046 20.3479 22.5075 20.3479 24.0403C20.3479 25.317 21.2336 26.0244 22.4817 26.2344L23.954 26.4903C24.4342 26.5651 24.7218 26.7462 24.7218 27.0022C24.7218 27.3185 24.3163 27.4996 23.6693 27.4996C22.9015 27.4996 22.3321 27.2293 22.2257 26.5967L20.0604 26.5823C20.2272 28.5205 21.7743 29.2883 23.6521 29.2883C25.5298 29.2883 27.0654 28.5377 27.0654 26.8526C27.0654 25.5586 26.1481 24.8972 24.7965 24.6413L23.445 24.417C22.8584 24.3106 22.6772 24.0863 22.6772 23.8303M28.9777 57.7283C28.4055 58.0877 27.9569 58.2401 27.3846 58.2401C26.5881 58.2401 26.2861 57.8807 26.2861 57.5327C26.2861 57.2308 26.5277 56.9921 27.0539 56.9921H28.9777V57.7283ZM27.8505 52.3163C26.0618 52.3163 24.4371 53.0985 24.3623 54.9907H26.5708C26.6456 54.4357 27.0971 54.1481 27.8476 54.1481C28.5981 54.1481 28.9748 54.4644 28.9748 55.051V55.4881H26.9446C25.1848 55.4881 24.0748 56.2387 24.0748 57.6219C24.0748 59.0942 25.1876 59.9971 27.005 59.9971C27.8016 59.9971 28.4486 59.7556 28.9748 59.4105V59.8016H31.1402V55.051C31.1402 53.2164 29.7714 52.3163 27.8476 52.3163M30.3868 37.156H27.9367V44.4457H30.3868V40.2674C30.959 39.7124 31.7096 39.3961 32.8972 39.3501V37.0352C31.816 37.0352 31.0338 37.3803 30.3868 37.9382V37.156ZM36.5579 29.0899L33.55 24.7764L36.3163 21.8001H33.4148L30.89 24.5205V18.4184H28.44V29.0927H30.89V27.6492L31.8965 26.5679L33.6391 29.0927H36.555L36.5579 29.0899ZM42.3063 20.716L43.8102 18.312H41.2394L40.0374 20.716H42.3063ZM44.9058 29.1359V21.8001H42.4702V25.8893C42.0503 26.3695 41.5845 26.6111 41.133 26.6111C40.3365 26.6111 39.8102 26.1136 39.8102 25.0784V21.8001H37.3602V25.4694C37.3602 27.5428 38.6226 28.8224 40.4716 28.8224C41.2538 28.8224 41.8835 28.5665 42.4702 28.115V29.1819C42.4702 30.174 41.8692 30.6858 41.0582 30.6858C40.2473 30.6858 39.6751 30.2344 39.5687 29.5873H37.1646C37.2854 31.4824 38.8325 32.7448 41.0582 32.7448C43.284 32.7448 44.9058 31.422 44.9058 29.1359ZM52.6269 44.4457H55.0625V40.2818C55.0625 38.2085 53.7858 36.9605 52.0403 36.9605C50.959 36.9605 50.22 37.2451 49.4407 37.9238C48.9001 37.3084 48.1179 36.9605 47.2006 36.9605C46.404 36.9605 45.8922 37.1704 45.4119 37.5758V37.156H42.9619V44.4457H45.4119V39.7699C45.757 39.3329 46.1337 39.1689 46.4932 39.1689C47.2897 39.1689 47.8016 39.6348 47.8016 40.6729V44.4457H50.2372V40.2818C50.2372 40.1006 50.2229 39.9224 50.2085 39.7556C50.5679 39.3185 50.9446 39.1689 51.3214 39.1689C52.1179 39.1689 52.6298 39.6348 52.6298 40.6729V44.4457H52.6269ZM61.6535 39.9799H58.6312C58.8267 39.2437 59.3214 38.7635 60.1783 38.7635C61.0352 38.7635 61.5327 39.1258 61.6506 39.9799M63.8764 41.3774C63.9224 41.0927 63.9224 40.8368 63.9224 40.5492C63.9224 38.3408 62.2976 36.9576 60.1179 36.9576C57.9382 36.9576 56.3134 38.5823 56.3134 40.7908C56.3134 42.9993 57.9065 44.6384 60.2962 44.6384C62.0101 44.6384 63.3616 43.7527 63.7987 42.3235H61.3343C61.11 42.5938 60.7937 42.7146 60.2531 42.7146C59.261 42.7146 58.7635 42.128 58.5996 41.3774H63.8764ZM68.4544 41.3027V39.2437H70.936V37.1531H68.4544V34.6715H66.0187V37.1531H64.5895V39.2437H66.0187V41.3774C66.0187 43.3472 67.2207 44.6384 69.2049 44.6384C69.6247 44.6384 70.4069 44.5924 71.1603 44.2761L70.89 42.0963C70.4529 42.2631 70.0618 42.3983 69.596 42.3983C68.8886 42.3983 68.4544 42.0532 68.4544 41.2998M77.3257 39.977H74.3034C74.4989 39.2408 74.9935 38.7606 75.8533 38.7606C76.7132 38.7606 77.2078 39.1229 77.3257 39.977ZM79.5514 41.3745C79.5974 41.0899 79.5974 40.8339 79.5974 40.5464C79.5974 38.3379 77.9755 36.9547 75.7929 36.9547C73.6103 36.9547 71.9885 38.5794 71.9885 40.7879C71.9885 42.9964 73.5816 44.6355 75.9712 44.6355C77.6851 44.6355 79.0367 43.7498 79.4738 42.3206H77.0093C76.7822 42.5909 76.4687 42.7117 75.9281 42.7117C74.936 42.7117 74.4385 42.1251 74.2746 41.3745H79.5514ZM86.2775 40.8023C86.2775 41.8404 85.5873 42.6053 84.5636 42.6053C83.5399 42.6053 82.8354 41.8375 82.8354 40.8023C82.8354 39.7671 83.5255 38.9993 84.5636 38.9993C85.6017 38.9993 86.2775 39.7958 86.2775 40.8023ZM88.5636 40.7879C88.5636 38.5938 86.8641 36.9547 84.5636 36.9547C82.2631 36.9547 80.5492 38.5938 80.5492 40.7879C80.5492 42.982 82.2487 44.6355 84.5636 44.6355C86.8785 44.6355 88.5636 43.0108 88.5636 40.7879ZM92.3249 40.2617C92.8972 39.7067 93.6477 39.3904 94.8354 39.3444V37.0295C93.7541 37.0295 92.972 37.3745 92.3249 37.9324V37.1502H89.8749V44.44H92.3249V40.2617ZM101.303 40.8023C101.303 41.8404 100.613 42.6053 99.5888 42.6053C98.5651 42.6053 97.8605 41.8375 97.8605 40.8023C97.8605 39.7671 98.5507 38.9993 99.5888 38.9993C100.627 38.9993 101.303 39.7958 101.303 40.8023ZM103.589 40.7879C103.589 38.5938 101.889 36.9547 99.5888 36.9547C97.2883 36.9547 95.5744 38.5938 95.5744 40.7879C95.5744 42.982 97.2739 44.6355 99.5888 44.6355C101.904 44.6355 103.589 43.0108 103.589 40.7879ZM107.367 33.7685H104.917V41.9008C104.917 43.6434 105.938 44.6671 107.652 44.6671C108.193 44.6671 108.733 44.578 109.469 44.3652L109.199 42.3206C108.822 42.4098 108.449 42.4702 108.178 42.4702C107.577 42.4702 107.367 42.1855 107.367 41.6276V33.7656V33.7685ZM125.314 9.04385C125.314 4.04601 121.265 0 116.273 0C111.281 0 107.229 4.04601 107.229 9.04385C107.229 14.0417 111.278 18.0877 116.273 18.0877C121.268 18.0877 125.314 14.0359 125.314 9.04385ZM134.358 18.0877V0.00287563C129.363 0.00287563 125.314 4.04889 125.314 9.04673C125.314 14.0446 129.363 18.0906 134.358 18.0906M135.077 40.7908C135.077 39.7987 135.692 39.0165 136.745 39.0165C137.481 39.0165 138.053 39.4824 138.174 40.1438H140.474C140.293 38.266 138.746 36.9576 136.73 36.9576C134.444 36.9576 132.748 38.5823 132.748 40.7908C132.748 42.9993 134.447 44.6384 136.73 44.6384C138.743 44.6384 140.293 43.33 140.474 41.4522H138.174C138.053 42.1136 137.484 42.5794 136.745 42.5794C135.692 42.5794 135.077 41.7829 135.077 40.7908ZM144.25 33.7714H141.8V44.4457H144.25V43.0022L145.257 41.9209L146.999 44.4457H149.915L146.91 40.1323L149.676 37.156H146.775L144.25 39.8763V33.7743V33.7714ZM161.49 9.04673C161.49 4.04889 157.441 0.00287563 152.449 0.00287563C147.457 0.00287563 143.405 4.04889 143.405 9.04673C143.405 14.0446 147.454 18.0906 152.449 18.0906C157.444 18.0906 161.49 14.0388 161.49 9.04673Z" fill="white"/>
</svg>
